<?xml version="1.0" encoding="UTF-8" standalone="no"?>
<!-- Created with Inkscape (http://www.inkscape.org/) -->

<svg
   xmlns:dc="http://purl.org/dc/elements/1.1/"
   xmlns:cc="http://creativecommons.org/ns#"
   xmlns:rdf="http://www.w3.org/1999/02/22-rdf-syntax-ns#"
   xmlns:svg="http://www.w3.org/2000/svg"
   xmlns="http://www.w3.org/2000/svg"
   xmlns:sodipodi="http://sodipodi.sourceforge.net/DTD/sodipodi-0.dtd"
   xmlns:inkscape="http://www.inkscape.org/namespaces/inkscape"
   width="32"
   height="32"
   viewBox="0 0 32 32.000001"
   id="svg2"
   version="1.1"
   inkscape:version="0.91 r13725"
   sodipodi:docname="metronome-logo.svg">
  <defs
     id="defs4" />
  <sodipodi:namedview
     id="base"
     pagecolor="#ffffff"
     bordercolor="#666666"
     borderopacity="1.0"
     inkscape:pageopacity="0.0"
     inkscape:pageshadow="2"
     inkscape:zoom="11.2"
     inkscape:cx="48.949561"
     inkscape:cy="22.183644"
     inkscape:document-units="px"
     inkscape:current-layer="layer1"
     showgrid="false"
     units="px"
     inkscape:window-width="1366"
     inkscape:window-height="705"
     inkscape:window-x="-8"
     inkscape:window-y="-8"
     inkscape:window-maximized="1" />
  <metadata
     id="metadata7">
    <rdf:RDF>
      <cc:Work
         rdf:about="">
        <dc:format>image/svg+xml</dc:format>
        <dc:type
           rdf:resource="http://purl.org/dc/dcmitype/StillImage" />
        <dc:title></dc:title>
      </cc:Work>
    </rdf:RDF>
  </metadata>
  <g
     inkscape:label="Calque 1"
     inkscape:groupmode="layer"
     id="layer1"
     transform="translate(0,-1020.3622)">
    <path
       style="fill:#1976d2;fill-opacity:1"
       d="m 5.9465495,1050.6687 c 0.045414,-0.2442 1.3642943,-6.8402 2.9308013,-14.6576 l 2.8481872,-14.2134 4.426306,-0.015 c 2.434464,-0.01 4.426306,-0.01 4.426306,9e-4 0,0.138 1.8476,9.1915 1.883003,9.2269 0.04412,0.044 0.584963,-0.7248 0.675206,-0.9599 0.01849,-0.048 -0.0918,-0.3351 -0.245029,-0.6377 l -0.2786,-0.5502 0.0026,-0.6671 c 0.0026,-0.5551 0.02443,-0.7224 0.132922,-0.9963 0.279614,-0.7061 0.929008,-1.3358 1.653894,-1.6036 0.262859,-0.097 0.466216,-0.1232 0.986051,-0.1263 l 0.654908,0 0.384849,-0.6019 c 0.27976,-0.4374 0.415529,-0.6008 0.497205,-0.5981 0.130875,0 1.446745,0.8305 1.447184,0.9088 0,0.029 -0.166062,0.3137 -0.369376,0.6326 -0.203322,0.319 -0.385589,0.6214 -0.405027,0.672 -0.0197,0.052 0.04464,0.2506 0.145092,0.4496 0.354814,0.7029 0.412416,1.4462 0.167292,2.1586 -0.122041,0.3547 -0.424681,0.829 -0.694636,1.0886 -0.510339,0.4906 -1.362256,0.8019 -2.057124,0.7516 -0.260855,-0.019 -0.358624,0 -0.417,0.065 -0.04197,0.049 -0.457056,0.6946 -0.92248,1.4339 l -0.846231,1.3443 1.725585,8.628 c 0.949075,4.7455 1.725585,8.6475 1.725585,8.6711 -9e-6,0.023 -4.626024,0.043 -10.280047,0.043 l -10.2800386,0 0.082657,-0.4442 z m 18.1473305,-1.4901 c 0.01454,-0.023 -0.21084,-1.2294 -0.500861,-2.6793 l -0.527301,-2.6364 -6.909187,-0.015 -6.9091767,-0.015 -0.5243508,2.6222 c -0.288396,1.4422 -0.5243508,2.6546 -0.5243336,2.694 8.6e-6,0.057 1.6251065,0.071 7.9343891,0.071 4.363905,0 7.946276,-0.02 7.960821,-0.043 z m -5.826003,-11.3908 c 1.433267,-2.2696 2.639842,-4.1909 2.681274,-4.2698 0.06683,-0.1271 -0.03363,-0.6846 -0.89346,-4.9575 -0.532831,-2.6478 -0.980623,-4.8464 -0.995082,-4.8859 -0.03836,-0.1046 -5.733032,-0.1046 -5.800732,0 -0.06382,0.099 -3.6810092,18.1717 -3.6477315,18.2259 0.014708,0.024 1.3819265,0.037 3.0382635,0.028 l 3.011532,-0.015 2.605936,-4.1264 z m 4.404339,4.0835 c 0.03982,-0.1048 -1.08505,-5.6767 -1.150402,-5.6983 -0.07259,-0.024 -3.65001,5.6458 -3.606592,5.716 0.05453,0.088 4.723338,0.071 4.756994,-0.018 z m 3.110032,-12.9785 c 0.273318,-0.2041 0.36842,-0.386 0.36842,-0.7048 0,-0.3222 -0.09489,-0.5006 -0.379172,-0.7129 -0.224309,-0.1675 -0.689286,-0.1627 -0.93084,0.01 -0.367397,0.262 -0.472125,0.8571 -0.212121,1.2054 0.265448,0.3556 0.818742,0.4527 1.153713,0.2026 z"
       id="path3359"
       inkscape:connector-curvature="0" />
  </g>
</svg>
